<svg width="142" height="15" viewBox="0 0 142 15" fill="none" xmlns="http://www.w3.org/2000/svg">
<path d="M0.08 14V1.4H5.084C5.768 1.4 6.386 1.574 6.938 1.922C7.496 2.264 7.937 2.726 8.261 3.308C8.591 3.884 8.756 4.523 8.756 5.225C8.756 5.777 8.66 6.29 8.468 6.764C8.276 7.232 8.006 7.643 7.658 7.997C7.31 8.351 6.905 8.627 6.443 8.825L9.44 14H6.578L3.707 9.05H2.564V14H0.08ZM2.564 6.566H4.787C5.057 6.566 5.303 6.5 5.525 6.368C5.753 6.23 5.933 6.047 6.065 5.819C6.203 5.585 6.272 5.327 6.272 5.045C6.272 4.769 6.203 4.517 6.065 4.289C5.933 4.055 5.753 3.869 5.525 3.731C5.303 3.593 5.057 3.524 4.787 3.524H2.564V6.566ZM14.5232 14.234C13.6952 14.234 12.9392 14.021 12.2552 13.595C11.5772 13.169 11.0342 12.596 10.6262 11.876C10.2242 11.156 10.0232 10.361 10.0232 9.491C10.0232 8.837 10.1402 8.225 10.3742 7.655C10.6082 7.079 10.9292 6.575 11.3372 6.143C11.7512 5.705 12.2312 5.363 12.7772 5.117C13.3232 4.871 13.9052 4.748 14.5232 4.748C15.2372 4.748 15.8882 4.901 16.4762 5.207C17.0702 5.513 17.5712 5.93 17.9792 6.458C18.3932 6.986 18.6872 7.583 18.8612 8.249C19.0412 8.915 19.0712 9.608 18.9512 10.328H12.7052C12.7832 10.592 12.9032 10.832 13.0652 11.048C13.2332 11.258 13.4372 11.426 13.6772 11.552C13.9232 11.678 14.2052 11.744 14.5232 11.75C14.8352 11.756 15.1232 11.684 15.3872 11.534C15.6512 11.384 15.8762 11.183 16.0622 10.931L18.6002 11.516C18.2342 12.314 17.6882 12.968 16.9622 13.478C16.2362 13.982 15.4232 14.234 14.5232 14.234ZM12.6152 8.492H16.4402C16.3622 8.192 16.2302 7.922 16.0442 7.682C15.8582 7.442 15.6332 7.253 15.3692 7.115C15.1112 6.977 14.8292 6.908 14.5232 6.908C14.2232 6.908 13.9412 6.977 13.6772 7.115C13.4192 7.253 13.1972 7.442 13.0112 7.682C12.8312 7.916 12.6992 8.186 12.6152 8.492ZM28.9504 8.276V14H26.4664V8.96C26.4664 8.642 26.3884 8.357 26.2324 8.105C26.0824 7.847 25.8784 7.643 25.6204 7.493C25.3684 7.343 25.0864 7.268 24.7744 7.268C24.4624 7.268 24.1774 7.343 23.9194 7.493C23.6614 7.643 23.4574 7.847 23.3074 8.105C23.1574 8.357 23.0824 8.642 23.0824 8.96V14H20.5984L20.5894 5H23.0734L23.0824 5.666C23.3824 5.378 23.7334 5.153 24.1354 4.991C24.5434 4.829 24.9724 4.748 25.4224 4.748C26.0764 4.748 26.6674 4.907 27.1954 5.225C27.7294 5.543 28.1554 5.969 28.4734 6.503C28.7914 7.031 28.9504 7.622 28.9504 8.276ZM37.3798 5H39.8638V14H37.3708L37.2538 13.064C37.0198 13.412 36.7198 13.694 36.3538 13.91C35.9878 14.126 35.5588 14.234 35.0668 14.234C34.3948 14.234 33.7678 14.108 33.1858 13.856C32.6038 13.604 32.0908 13.256 31.6468 12.812C31.2028 12.368 30.8548 11.855 30.6028 11.273C30.3568 10.685 30.2338 10.055 30.2338 9.383C30.2338 8.741 30.3508 8.141 30.5848 7.583C30.8188 7.025 31.1488 6.533 31.5748 6.107C32.0008 5.681 32.4898 5.348 33.0418 5.108C33.5998 4.868 34.1998 4.748 34.8418 4.748C35.3938 4.748 35.8888 4.865 36.3268 5.099C36.7708 5.333 37.1578 5.63 37.4878 5.99L37.3798 5ZM35.0038 11.849C35.4118 11.849 35.7808 11.744 36.1108 11.534C36.4408 11.324 36.7018 11.042 36.8938 10.688C37.0858 10.328 37.1818 9.932 37.1818 9.5C37.1818 9.062 37.0858 8.666 36.8938 8.312C36.7018 7.958 36.4408 7.676 36.1108 7.466C35.7808 7.256 35.4118 7.151 35.0038 7.151C34.5898 7.151 34.2148 7.256 33.8788 7.466C33.5428 7.676 33.2758 7.961 33.0778 8.321C32.8798 8.675 32.7808 9.068 32.7808 9.5C32.7808 9.932 32.8798 10.328 33.0778 10.688C33.2818 11.042 33.5518 11.324 33.8878 11.534C34.2238 11.744 34.5958 11.849 35.0038 11.849ZM41.8722 5H44.3562V14H41.8722V5ZM43.1322 3.965C42.7722 3.965 42.4692 3.845 42.2232 3.605C41.9772 3.365 41.8542 3.068 41.8542 2.714C41.8542 2.36 41.9772 2.063 42.2232 1.823C42.4692 1.583 42.7692 1.463 43.1232 1.463C43.4772 1.463 43.7742 1.583 44.0142 1.823C44.2602 2.063 44.3832 2.36 44.3832 2.714C44.3832 3.068 44.2632 3.365 44.0232 3.605C43.7892 3.845 43.4922 3.965 43.1322 3.965ZM49.156 14.162C48.694 14.126 48.25 14.03 47.824 13.874C47.398 13.712 47.017 13.496 46.681 13.226C46.351 12.95 46.093 12.62 45.907 12.236L47.995 11.336C48.061 11.432 48.16 11.537 48.292 11.651C48.424 11.759 48.583 11.855 48.769 11.939C48.961 12.023 49.183 12.065 49.435 12.065C49.621 12.065 49.801 12.044 49.975 12.002C50.149 11.954 50.29 11.879 50.398 11.777C50.506 11.669 50.56 11.528 50.56 11.354C50.56 11.162 50.491 11.015 50.353 10.913C50.215 10.811 50.047 10.736 49.849 10.688C49.657 10.634 49.471 10.589 49.291 10.553C48.739 10.457 48.217 10.286 47.725 10.04C47.239 9.788 46.843 9.464 46.537 9.068C46.231 8.672 46.078 8.198 46.078 7.646C46.078 7.04 46.237 6.518 46.555 6.08C46.873 5.636 47.287 5.294 47.797 5.054C48.307 4.814 48.859 4.694 49.453 4.694C50.155 4.694 50.806 4.841 51.406 5.135C52.006 5.429 52.489 5.843 52.855 6.377L50.893 7.538C50.815 7.424 50.713 7.316 50.587 7.214C50.467 7.106 50.326 7.016 50.164 6.944C50.008 6.866 49.84 6.821 49.66 6.809C49.426 6.791 49.213 6.806 49.021 6.854C48.829 6.896 48.676 6.977 48.562 7.097C48.454 7.217 48.4 7.379 48.4 7.583C48.4 7.781 48.487 7.928 48.661 8.024C48.835 8.114 49.036 8.183 49.264 8.231C49.492 8.273 49.693 8.324 49.867 8.384C50.389 8.552 50.878 8.768 51.334 9.032C51.796 9.29 52.168 9.608 52.45 9.986C52.732 10.364 52.864 10.808 52.846 11.318C52.846 11.912 52.669 12.434 52.315 12.884C51.961 13.328 51.502 13.667 50.938 13.901C50.38 14.129 49.786 14.216 49.156 14.162ZM57.1959 14.162C56.7339 14.126 56.2899 14.03 55.8639 13.874C55.4379 13.712 55.0569 13.496 54.7209 13.226C54.3909 12.95 54.1329 12.62 53.9469 12.236L56.0349 11.336C56.1009 11.432 56.1999 11.537 56.3319 11.651C56.4639 11.759 56.6229 11.855 56.8089 11.939C57.0009 12.023 57.2229 12.065 57.4749 12.065C57.6609 12.065 57.8409 12.044 58.0149 12.002C58.1889 11.954 58.3299 11.879 58.4379 11.777C58.5459 11.669 58.5999 11.528 58.5999 11.354C58.5999 11.162 58.5309 11.015 58.3929 10.913C58.2549 10.811 58.0869 10.736 57.8889 10.688C57.6969 10.634 57.5109 10.589 57.3309 10.553C56.7789 10.457 56.2569 10.286 55.7649 10.04C55.2789 9.788 54.8829 9.464 54.5769 9.068C54.2709 8.672 54.1179 8.198 54.1179 7.646C54.1179 7.04 54.2769 6.518 54.5949 6.08C54.9129 5.636 55.3269 5.294 55.8369 5.054C56.3469 4.814 56.8989 4.694 57.4929 4.694C58.1949 4.694 58.8459 4.841 59.4459 5.135C60.0459 5.429 60.5289 5.843 60.8949 6.377L58.9329 7.538C58.8549 7.424 58.7529 7.316 58.6269 7.214C58.5069 7.106 58.3659 7.016 58.2039 6.944C58.0479 6.866 57.8799 6.821 57.6999 6.809C57.4659 6.791 57.2529 6.806 57.0609 6.854C56.8689 6.896 56.7159 6.977 56.6019 7.097C56.4939 7.217 56.4399 7.379 56.4399 7.583C56.4399 7.781 56.5269 7.928 56.7009 8.024C56.8749 8.114 57.0759 8.183 57.3039 8.231C57.5319 8.273 57.7329 8.324 57.9069 8.384C58.4289 8.552 58.9179 8.768 59.3739 9.032C59.8359 9.29 60.2079 9.608 60.4899 9.986C60.7719 10.364 60.9039 10.808 60.8859 11.318C60.8859 11.912 60.7089 12.434 60.3549 12.884C60.0009 13.328 59.5419 13.667 58.9779 13.901C58.4199 14.129 57.8259 14.216 57.1959 14.162ZM69.0469 5H71.5309V14H69.0379L68.9209 13.064C68.6869 13.412 68.3869 13.694 68.0209 13.91C67.6549 14.126 67.2259 14.234 66.7339 14.234C66.0619 14.234 65.4349 14.108 64.8529 13.856C64.2709 13.604 63.7579 13.256 63.3139 12.812C62.8699 12.368 62.5219 11.855 62.2699 11.273C62.0239 10.685 61.9009 10.055 61.9009 9.383C61.9009 8.741 62.0179 8.141 62.2519 7.583C62.4859 7.025 62.8159 6.533 63.2419 6.107C63.6679 5.681 64.1569 5.348 64.7089 5.108C65.2669 4.868 65.8669 4.748 66.5089 4.748C67.0609 4.748 67.5559 4.865 67.9939 5.099C68.4379 5.333 68.8249 5.63 69.1549 5.99L69.0469 5ZM66.6709 11.849C67.0789 11.849 67.4479 11.744 67.7779 11.534C68.1079 11.324 68.3689 11.042 68.5609 10.688C68.7529 10.328 68.8489 9.932 68.8489 9.5C68.8489 9.062 68.7529 8.666 68.5609 8.312C68.3689 7.958 68.1079 7.676 67.7779 7.466C67.4479 7.256 67.0789 7.151 66.6709 7.151C66.2569 7.151 65.8819 7.256 65.5459 7.466C65.2099 7.676 64.9429 7.961 64.7449 8.321C64.5469 8.675 64.4479 9.068 64.4479 9.5C64.4479 9.932 64.5469 10.328 64.7449 10.688C64.9489 11.042 65.2189 11.324 65.5549 11.534C65.8909 11.744 66.2629 11.849 66.6709 11.849ZM81.9004 8.276V14H79.4164V8.96C79.4164 8.642 79.3384 8.357 79.1824 8.105C79.0324 7.847 78.8284 7.643 78.5704 7.493C78.3184 7.343 78.0364 7.268 77.7244 7.268C77.4124 7.268 77.1274 7.343 76.8694 7.493C76.6114 7.643 76.4074 7.847 76.2574 8.105C76.1074 8.357 76.0324 8.642 76.0324 8.96V14H73.5484L73.5394 5H76.0234L76.0324 5.666C76.3324 5.378 76.6834 5.153 77.0854 4.991C77.4934 4.829 77.9224 4.748 78.3724 4.748C79.0264 4.748 79.6174 4.907 80.1454 5.225C80.6794 5.543 81.1054 5.969 81.4234 6.503C81.7414 7.031 81.9004 7.622 81.9004 8.276ZM89.0518 11.156L91.2838 12.362C90.8698 12.926 90.3508 13.379 89.7268 13.721C89.1028 14.063 88.4218 14.234 87.6838 14.234C86.8558 14.234 86.0998 14.021 85.4158 13.595C84.7378 13.169 84.1948 12.599 83.7868 11.885C83.3848 11.165 83.1838 10.37 83.1838 9.5C83.1838 8.84 83.3008 8.225 83.5348 7.655C83.7688 7.079 84.0898 6.575 84.4978 6.143C84.9118 5.705 85.3918 5.363 85.9378 5.117C86.4838 4.871 87.0658 4.748 87.6838 4.748C88.4218 4.748 89.1028 4.919 89.7268 5.261C90.3508 5.603 90.8698 6.062 91.2838 6.638L89.0518 7.844C88.8658 7.646 88.6528 7.496 88.4128 7.394C88.1788 7.286 87.9358 7.232 87.6838 7.232C87.2998 7.232 86.9548 7.337 86.6488 7.547C86.3488 7.757 86.1088 8.036 85.9288 8.384C85.7548 8.726 85.6678 9.098 85.6678 9.5C85.6678 9.896 85.7578 10.265 85.9378 10.607C86.1178 10.949 86.3578 11.225 86.6578 11.435C86.9638 11.645 87.3058 11.75 87.6838 11.75C87.9418 11.75 88.1878 11.696 88.4218 11.588C88.6558 11.48 88.8658 11.336 89.0518 11.156ZM96.7255 14.234C95.8975 14.234 95.1415 14.021 94.4575 13.595C93.7795 13.169 93.2365 12.596 92.8285 11.876C92.4265 11.156 92.2255 10.361 92.2255 9.491C92.2255 8.837 92.3425 8.225 92.5765 7.655C92.8105 7.079 93.1315 6.575 93.5395 6.143C93.9535 5.705 94.4335 5.363 94.9795 5.117C95.5255 4.871 96.1075 4.748 96.7255 4.748C97.4395 4.748 98.0905 4.901 98.6785 5.207C99.2725 5.513 99.7735 5.93 100.182 6.458C100.596 6.986 100.89 7.583 101.064 8.249C101.244 8.915 101.274 9.608 101.154 10.328H94.9075C94.9855 10.592 95.1055 10.832 95.2675 11.048C95.4355 11.258 95.6395 11.426 95.8795 11.552C96.1255 11.678 96.4075 11.744 96.7255 11.75C97.0375 11.756 97.3255 11.684 97.5895 11.534C97.8535 11.384 98.0785 11.183 98.2645 10.931L100.803 11.516C100.437 12.314 99.8905 12.968 99.1645 13.478C98.4385 13.982 97.6255 14.234 96.7255 14.234ZM94.8175 8.492H98.6425C98.5645 8.192 98.4325 7.922 98.2465 7.682C98.0605 7.442 97.8355 7.253 97.5715 7.115C97.3135 6.977 97.0315 6.908 96.7255 6.908C96.4255 6.908 96.1435 6.977 95.8795 7.115C95.6215 7.253 95.3995 7.442 95.2135 7.682C95.0335 7.916 94.9015 8.186 94.8175 8.492ZM107.562 14V1.4H110.046V11.516H115.122V14H107.562ZM123.227 5H125.711V14H123.218L123.101 13.064C122.867 13.412 122.567 13.694 122.201 13.91C121.835 14.126 121.406 14.234 120.914 14.234C120.242 14.234 119.615 14.108 119.033 13.856C118.451 13.604 117.938 13.256 117.494 12.812C117.05 12.368 116.702 11.855 116.45 11.273C116.204 10.685 116.081 10.055 116.081 9.383C116.081 8.741 116.198 8.141 116.432 7.583C116.666 7.025 116.996 6.533 117.422 6.107C117.848 5.681 118.337 5.348 118.889 5.108C119.447 4.868 120.047 4.748 120.689 4.748C121.241 4.748 121.736 4.865 122.174 5.099C122.618 5.333 123.005 5.63 123.335 5.99L123.227 5ZM120.851 11.849C121.259 11.849 121.628 11.744 121.958 11.534C122.288 11.324 122.549 11.042 122.741 10.688C122.933 10.328 123.029 9.932 123.029 9.5C123.029 9.062 122.933 8.666 122.741 8.312C122.549 7.958 122.288 7.676 121.958 7.466C121.628 7.256 121.259 7.151 120.851 7.151C120.437 7.151 120.062 7.256 119.726 7.466C119.39 7.676 119.123 7.961 118.925 8.321C118.727 8.675 118.628 9.068 118.628 9.5C118.628 9.932 118.727 10.328 118.925 10.688C119.129 11.042 119.399 11.324 119.735 11.534C120.071 11.744 120.443 11.849 120.851 11.849ZM132.633 4.748C133.509 4.748 134.304 4.961 135.018 5.387C135.738 5.813 136.311 6.386 136.737 7.106C137.163 7.82 137.376 8.612 137.376 9.482C137.376 10.136 137.253 10.751 137.007 11.327C136.761 11.903 136.419 12.41 135.981 12.848C135.549 13.28 135.045 13.619 134.469 13.865C133.899 14.111 133.287 14.234 132.633 14.234C132.117 14.234 131.658 14.12 131.256 13.892C130.854 13.664 130.509 13.376 130.221 13.028V14H127.737V0.499999H130.221V5.954C130.509 5.6 130.854 5.312 131.256 5.09C131.658 4.862 132.117 4.748 132.633 4.748ZM132.597 11.831C133.011 11.831 133.386 11.726 133.722 11.516C134.064 11.306 134.334 11.024 134.532 10.67C134.73 10.31 134.829 9.914 134.829 9.482C134.829 9.05 134.727 8.657 134.523 8.303C134.325 7.949 134.055 7.667 133.713 7.457C133.377 7.241 133.005 7.133 132.597 7.133C132.189 7.133 131.82 7.241 131.49 7.457C131.166 7.667 130.908 7.952 130.716 8.312C130.53 8.666 130.437 9.056 130.437 9.482C130.437 9.92 130.53 10.316 130.716 10.67C130.908 11.024 131.166 11.306 131.49 11.516C131.82 11.726 132.189 11.831 132.597 11.831ZM139.92 14.234C139.572 14.234 139.275 14.114 139.029 13.874C138.789 13.628 138.669 13.328 138.669 12.974C138.669 12.632 138.789 12.338 139.029 12.092C139.275 11.846 139.572 11.723 139.92 11.723C140.268 11.723 140.565 11.846 140.811 12.092C141.057 12.338 141.18 12.632 141.18 12.974C141.18 13.328 141.057 13.628 140.811 13.874C140.565 14.114 140.268 14.234 139.92 14.234Z" fill="#1B1D21"/>
</svg>
